# xmcd
#
# Track frame offsets:
#	150
#	13189
#	25840
#	37904
#	49646
#	61768
#	71000
#	82518
#	94852
#	107977
#	120945
#	133381
#	143271
#	153427
#	162985
#	175580
#	185591
#	193355
#	205539
#	215607
#	227117
#	237307
#	246127
#	260465
#
# Disc length: 3598 seconds
# Revision: 2
# Processed by: cddbd v1.5.2PL0 Copyright (c) Steve Scherf et al.
# Submitted via: dBpowerAMP V12.0
#
DISCID=420e0c18
DTITLE=Hank Williams - Sing Me A Blue Song/The Immortal Hank Williams
DYEAR=1957
DGENRE=Country
TTITLE0=Wedding Bells
TTITLE1=May You Never Be Alone
TTITLE2=Lost Highway
TTITLE3=Why Should We Try Anymore
TTITLE4=Last Night I Heard You Crying In Your Sleep
TTITLE5=Blue Love (In My Heart)
TTITLE6=Mansion On The Hill
TTITLE7=They'll Never Take Her Love From Me
TTITLE8=I've Just Told Mama Goodbye
TTITLE9=A House Without Love (Is Not A Home)
TTITLE10=Six More Miles (To The Graveyard)
TTITLE11=Singing Waterfall
TTITLE12=There's No Room In My Heart For The Blues
TTITLE13=Waltz Of The Wind
TTITLE14=Pan American
TTITLE15=With Tears In My Eyes
TTITLE16=I Wish I Had A Nickel
TTITLE17=Fly Trouble
TTITLE18=Please Don't Let Me Love You
TTITLE19=I'm Satisfied With You
TTITLE20=No One Will Ever Know
TTITLE21=Faded Love And Winter Roses
TTITLE22=At The First Fall Of Snow
TTITLE23=California Zephyr
EXTD=
EXTT0=
EXTT1=
EXTT2=
EXTT3=
EXTT4=
EXTT5=
EXTT6=
EXTT7=
EXTT8=
EXTT9=
EXTT10=
EXTT11=
EXTT12=
EXTT13=
EXTT14=
EXTT15=
EXTT16=
EXTT17=
EXTT18=
EXTT19=
EXTT20=
EXTT21=
EXTT22=
EXTT23=
PLAYORDER=
